{
	"asset":{
		"generator":"Khronos glTF Blender I/O v5.2.39",
		"version":"2.0"
	},
	"scene":0,
	"scenes":[
		{
			"name":"Scene",
			"nodes":[
				0
			]
		}
	],
	"nodes":[
		{
			"mesh":0,
			"name":"Sphere"
		}
	],
	"meshes":[
		{
			"name":"Sphere",
			"primitives":[
				{
					"attributes":{
						"POSITION":0,
						"NORMAL":1,
						"TEXCOORD_0":2
					},
					"indices":3
				}
			]
		}
	],
	"accessors":[
		{
			"bufferView":0,
			"componentType":5126,
			"count":16957,
			"max":[
				0.04943660646677017,
				0.006179087329655886,
				0.021388422697782516
			],
			"min":[
				-0.040805768221616745,
				-0.006179087329655886,
				-0.021388422697782516
			],
			"type":"VEC3"
		},
		{
			"bufferView":1,
			"componentType":5126,
			"count":16957,
			"type":"VEC3"
		},
		{
			"bufferView":2,
			"componentType":5126,
			"count":16957,
			"type":"VEC2"
		},
		{
			"bufferView":3,
			"componentType":5123,
			"count":26223,
			"type":"SCALAR"
		}
	],
	"bufferViews":[
		{
			"buffer":0,
			"byteLength":203484,
			"byteOffset":0,
			"target":34962
		},
		{
			"buffer":0,
			"byteLength":203484,
			"byteOffset":203484,
			"target":34962
		},
		{
			"buffer":0,
			"byteLength":135656,
			"byteOffset":406968,
			"target":34962
		},
		{
			"buffer":0,
			"byteLength":52446,
			"byteOffset":542624,
			"target":34963
		}
	],
	"buffers":[
		{
			"byteLength":595072,
			"uri":"key-e97b9e5715692a174a07ec11ac662325.bin"
		}
	]
}
