{
	"asset":{
		"generator":"Khronos glTF Blender I/O v5.2.39",
		"version":"2.0"
	},
	"scene":0,
	"scenes":[
		{
			"name":"Scene",
			"nodes":[
				2
			]
		}
	],
	"nodes":[
		{
			"mesh":0,
			"name":"LID",
			"rotation":[
				0,
				0,
				-0.6110892295837402,
				0.7915617227554321
			],
			"translation":[
				-0.010667562484741211,
				-0.013818368315696716,
				0
			]
		},
		{
			"children":[
				0
			],
			"mesh":1,
			"name":"HINGES",
			"rotation":[
				0,
				0,
				0.8907949328422546,
				0.4544057548046112
			],
			"translation":[
				-1.0106678009033203,
				0.4510622024536133,
				0
			]
		},
		{
			"children":[
				1
			],
			"mesh":2,
			"name":"BOX",
			"scale":[
				0.05000000074505806,
				0.05000000074505806,
				0.05000000074505806
			],
			"translation":[
				0,
				0.058211132884025574,
				0
			]
		}
	],
	"animations":[
		{
			"channels":[
				{
					"sampler":0,
					"target":{
						"node":2,
						"path":"translation"
					}
				},
				{
					"sampler":1,
					"target":{
						"node":2,
						"path":"rotation"
					}
				},
				{
					"sampler":2,
					"target":{
						"node":2,
						"path":"scale"
					}
				},
				{
					"sampler":3,
					"target":{
						"node":1,
						"path":"translation"
					}
				},
				{
					"sampler":4,
					"target":{
						"node":1,
						"path":"rotation"
					}
				},
				{
					"sampler":5,
					"target":{
						"node":1,
						"path":"scale"
					}
				}
			],
			"name":"Open Lid Animation",
			"samplers":[
				{
					"input":13,
					"interpolation":"STEP",
					"output":14
				},
				{
					"input":13,
					"interpolation":"STEP",
					"output":15
				},
				{
					"input":13,
					"interpolation":"STEP",
					"output":16
				},
				{
					"input":13,
					"interpolation":"STEP",
					"output":17
				},
				{
					"input":18,
					"interpolation":"LINEAR",
					"output":19
				},
				{
					"input":13,
					"interpolation":"STEP",
					"output":20
				}
			]
		},
		{
			"channels":[
				{
					"sampler":0,
					"target":{
						"node":1,
						"path":"translation"
					}
				},
				{
					"sampler":1,
					"target":{
						"node":1,
						"path":"rotation"
					}
				},
				{
					"sampler":2,
					"target":{
						"node":1,
						"path":"scale"
					}
				}
			],
			"name":"Close Lid Animation",
			"samplers":[
				{
					"input":21,
					"interpolation":"STEP",
					"output":17
				},
				{
					"input":22,
					"interpolation":"LINEAR",
					"output":23
				},
				{
					"input":21,
					"interpolation":"STEP",
					"output":24
				}
			]
		}
	],
	"materials":[
		{
			"doubleSided":true,
			"name":"Material",
			"pbrMetallicRoughness":{
				"baseColorFactor":[
					0.800000011920929,
					0.800000011920929,
					0.800000011920929,
					1
				],
				"metallicFactor":0,
				"roughnessFactor":0.5
			}
		}
	],
	"meshes":[
		{
			"name":"Cube.001",
			"primitives":[
				{
					"attributes":{
						"POSITION":0,
						"NORMAL":1,
						"TEXCOORD_0":2,
						"TANGENT":3
					},
					"indices":4,
					"material":0
				}
			]
		},
		{
			"name":"Cube.002",
			"primitives":[
				{
					"attributes":{
						"POSITION":5,
						"NORMAL":6,
						"TEXCOORD_0":7
					},
					"indices":8,
					"material":0
				}
			]
		},
		{
			"name":"Cube",
			"primitives":[
				{
					"attributes":{
						"POSITION":9,
						"NORMAL":10,
						"TEXCOORD_0":11
					},
					"indices":12,
					"material":0
				}
			]
		}
	],
	"accessors":[
		{
			"bufferView":0,
			"componentType":5126,
			"count":208,
			"max":[
				2.0140910148620605,
				0.56275475025177,
				1.0101710557937622
			],
			"min":[
				-0.014091014862060547,
				-5.960464477539063e-08,
				-1.0101710557937622
			],
			"type":"VEC3"
		},
		{
			"bufferView":1,
			"componentType":5126,
			"count":208,
			"type":"VEC3"
		},
		{
			"bufferView":2,
			"componentType":5126,
			"count":208,
			"type":"VEC2"
		},
		{
			"bufferView":3,
			"componentType":5126,
			"count":208,
			"type":"VEC4"
		},
		{
			"bufferView":4,
			"componentType":5123,
			"count":330,
			"type":"SCALAR"
		},
		{
			"bufferView":5,
			"componentType":5126,
			"count":1408,
			"max":[
				0.21434223651885986,
				0.2215750813484192,
				0.8265515565872192
			],
			"min":[
				-0.2124958038330078,
				-0.20526280999183655,
				-0.8265515565872192
			],
			"type":"VEC3"
		},
		{
			"bufferView":6,
			"componentType":5126,
			"count":1408,
			"type":"VEC3"
		},
		{
			"bufferView":7,
			"componentType":5126,
			"count":1408,
			"type":"VEC2"
		},
		{
			"bufferView":8,
			"componentType":5123,
			"count":2280,
			"type":"SCALAR"
		},
		{
			"bufferView":9,
			"componentType":5126,
			"count":540,
			"max":[
				1.1030497550964355,
				0.7810236811637878,
				1
			],
			"min":[
				-1,
				-1.1851725578308105,
				-1
			],
			"type":"VEC3"
		},
		{
			"bufferView":10,
			"componentType":5126,
			"count":540,
			"type":"VEC3"
		},
		{
			"bufferView":11,
			"componentType":5126,
			"count":540,
			"type":"VEC2"
		},
		{
			"bufferView":12,
			"componentType":5123,
			"count":933,
			"type":"SCALAR"
		},
		{
			"bufferView":13,
			"componentType":5126,
			"count":2,
			"max":[
				5
			],
			"min":[
				0.041666666666666664
			],
			"type":"SCALAR"
		},
		{
			"bufferView":14,
			"componentType":5126,
			"count":2,
			"type":"VEC3"
		},
		{
			"bufferView":15,
			"componentType":5126,
			"count":2,
			"type":"VEC4"
		},
		{
			"bufferView":16,
			"componentType":5126,
			"count":2,
			"type":"VEC3"
		},
		{
			"bufferView":17,
			"componentType":5126,
			"count":2,
			"type":"VEC3"
		},
		{
			"bufferView":18,
			"componentType":5126,
			"count":120,
			"max":[
				5
			],
			"min":[
				0.041666666666666664
			],
			"type":"SCALAR"
		},
		{
			"bufferView":19,
			"componentType":5126,
			"count":120,
			"type":"VEC4"
		},
		{
			"bufferView":20,
			"componentType":5126,
			"count":2,
			"type":"VEC3"
		},
		{
			"bufferView":21,
			"componentType":5126,
			"count":2,
			"max":[
				1.6666666666666667
			],
			"min":[
				0.041666666666666664
			],
			"type":"SCALAR"
		},
		{
			"bufferView":22,
			"componentType":5126,
			"count":40,
			"max":[
				1.6666666666666667
			],
			"min":[
				0.041666666666666664
			],
			"type":"SCALAR"
		},
		{
			"bufferView":23,
			"componentType":5126,
			"count":40,
			"type":"VEC4"
		},
		{
			"bufferView":24,
			"componentType":5126,
			"count":2,
			"type":"VEC3"
		}
	],
	"bufferViews":[
		{
			"buffer":0,
			"byteLength":2496,
			"byteOffset":0,
			"target":34962
		},
		{
			"buffer":0,
			"byteLength":2496,
			"byteOffset":2496,
			"target":34962
		},
		{
			"buffer":0,
			"byteLength":1664,
			"byteOffset":4992,
			"target":34962
		},
		{
			"buffer":0,
			"byteLength":3328,
			"byteOffset":6656,
			"target":34962
		},
		{
			"buffer":0,
			"byteLength":660,
			"byteOffset":9984,
			"target":34963
		},
		{
			"buffer":0,
			"byteLength":16896,
			"byteOffset":10644,
			"target":34962
		},
		{
			"buffer":0,
			"byteLength":16896,
			"byteOffset":27540,
			"target":34962
		},
		{
			"buffer":0,
			"byteLength":11264,
			"byteOffset":44436,
			"target":34962
		},
		{
			"buffer":0,
			"byteLength":4560,
			"byteOffset":55700,
			"target":34963
		},
		{
			"buffer":0,
			"byteLength":6480,
			"byteOffset":60260,
			"target":34962
		},
		{
			"buffer":0,
			"byteLength":6480,
			"byteOffset":66740,
			"target":34962
		},
		{
			"buffer":0,
			"byteLength":4320,
			"byteOffset":73220,
			"target":34962
		},
		{
			"buffer":0,
			"byteLength":1866,
			"byteOffset":77540,
			"target":34963
		},
		{
			"buffer":0,
			"byteLength":8,
			"byteOffset":79408
		},
		{
			"buffer":0,
			"byteLength":24,
			"byteOffset":79416
		},
		{
			"buffer":0,
			"byteLength":32,
			"byteOffset":79440
		},
		{
			"buffer":0,
			"byteLength":24,
			"byteOffset":79472
		},
		{
			"buffer":0,
			"byteLength":24,
			"byteOffset":79496
		},
		{
			"buffer":0,
			"byteLength":480,
			"byteOffset":79520
		},
		{
			"buffer":0,
			"byteLength":1920,
			"byteOffset":80000
		},
		{
			"buffer":0,
			"byteLength":24,
			"byteOffset":81920
		},
		{
			"buffer":0,
			"byteLength":8,
			"byteOffset":81944
		},
		{
			"buffer":0,
			"byteLength":160,
			"byteOffset":81952
		},
		{
			"buffer":0,
			"byteLength":640,
			"byteOffset":82112
		},
		{
			"buffer":0,
			"byteLength":24,
			"byteOffset":82752
		}
	],
	"buffers":[
		{
			"byteLength":82776,
			"uri":"music_box_final-40a3f81621d29bb93b6c3f9f085a3489.bin"
		}
	]
}
